<?xml version="1.0" standalone="no"?><!DOCTYPE svg PUBLIC "-//W3C//DTD SVG 1.1//EN" "http://www.w3.org/Graphics/SVG/1.1/DTD/svg11.dtd"><svg class="icon" width="18px" height="18.00px" viewBox="0 0 1024 1024" version="1.1" xmlns="http://www.w3.org/2000/svg"><path fill="#ffffff" d="M894.55 867.77l-274.53-393.7c16.63-35.07 25.33-73.56 25.33-112.69 0-145.1-118.05-263.15-263.15-263.15-145.1 0-263.15 118.05-263.15 263.15S237.1 624.52 382.2 624.52c9.86 0 19.86-0.58 29.86-1.73l28.77 17.35 28.59 105.33a38.795 38.795 0 0 0 22.32 25.56l86.6 36.61 63.09 102.61a38.782 38.782 0 0 0 33.03 18.47h188.28c14.45 0 27.69-8.03 34.38-20.84s5.69-28.26-2.57-40.11z m-198.41-16.6l-58.23-94.71a38.727 38.727 0 0 0-17.93-15.41l-80.65-34.09-27.73-102.15a38.698 38.698 0 0 0-17.39-23.04l-53.91-32.51c-7.98-4.82-17.4-6.62-26.57-5.02-10.57 1.81-21.18 2.73-31.53 2.73-102.34 0-185.59-83.26-185.59-185.59s83.26-185.59 185.59-185.59c102.34 0 185.6 83.26 185.6 185.59 0 33.69-9.13 66.68-26.4 95.42-7.88 13.1-7.32 29.61 1.43 42.16l245.6 352.22h-92.29z"  /><path fill="#ffffff" d="M379.93 290.01c-40.43 0-73.2 32.77-73.2 73.2s32.77 73.21 73.2 73.21 73.2-32.78 73.2-73.21c0-40.43-32.77-73.2-73.2-73.2z"  /></svg>