<?xml version="1.0" standalone="no"?><!DOCTYPE svg PUBLIC "-//W3C//DTD SVG 1.1//EN" "http://www.w3.org/Graphics/SVG/1.1/DTD/svg11.dtd"><svg class="icon" width="18px" height="18.00px" viewBox="0 0 1024 1024" version="1.1" xmlns="http://www.w3.org/2000/svg"><path fill="#ffffff" d="M786.84 98.57H255.81c-62.87 0-113.79 39.77-113.79 102.64V808.1c0 62.87 50.92 120.12 113.79 120.12h531.03c62.87 0 95.14-57.26 95.14-120.12V201.21c0-62.87-32.27-102.64-95.14-102.64z m0 739.96H255.82c-20.95 0-37.93-12.69-37.93-33.63 0-20.95 16.98-33.63 37.93-33.63h531.02c20.95 0 37.93 12.69 37.93 33.63 0 20.94-16.99 33.63-37.93 33.63z m27.87-137.61c0-4.2-14.55 3.07-27.87 3.07H255.81c-13.33 0-24.1-7.28-46.52-3.07V201.21c0-20.96 25.57-35.37 46.52-35.37h531.02c20.96 0 27.87 14.41 27.87 35.37v499.71z"  /><path fill="#ffffff" d="M521.32 656.37c-125.49 0-227.58-102.09-227.58-227.58s102.1-227.58 227.58-227.58S748.91 303.3 748.91 428.79s-102.1 227.58-227.59 227.58z m0-379.3c-83.66 0-151.72 68.06-151.72 151.72s68.06 151.72 151.72 151.72 151.72-68.06 151.72-151.72-68.06-151.72-151.72-151.72z"  /></svg>