<?xml version="1.0" standalone="no"?><!DOCTYPE svg PUBLIC "-//W3C//DTD SVG 1.1//EN" "http://www.w3.org/Graphics/SVG/1.1/DTD/svg11.dtd"><svg class="icon" width="18px" height="18.00px" viewBox="0 0 1024 1024" version="1.1" xmlns="http://www.w3.org/2000/svg"><path fill="#ffffff" d="M649.65 98.96c-153.35 0-278.1 124.75-278.1 278.1 0 64.71 22.28 124.28 59.49 171.59-3.12 1.64-6.14 3.57-8.82 6.13l-127.3 121.55c-19.03-10.55-40.88-16.6-64.13-16.6C157.57 659.74 98 719.3 98 792.52c0 73.21 59.56 132.77 132.78 132.77 73.21 0 132.77-59.56 132.77-132.77 0-21.81-5.38-42.35-14.74-60.52l126.91-121.18c3.35-3.2 5.87-6.92 7.82-10.84 46.38 34.65 103.88 55.19 166.1 55.19 153.35 0 278.11-124.75 278.11-278.1S803 98.96 649.65 98.96zM230.78 847.81c-30.49 0-55.29-24.8-55.29-55.29 0-30.5 24.81-55.3 55.29-55.3s55.29 24.8 55.29 55.3c0 30.48-24.8 55.29-55.29 55.29z m418.87-270.14c-110.62 0-200.61-90-200.61-200.61s89.99-200.61 200.61-200.61 200.62 90 200.62 200.61-90 200.61-200.62 200.61z"  /><path fill="#ffffff" d="M596.898386 421.252223a70.96 70.96 0 1 0 100.350843-100.354346 70.96 70.96 0 1 0-100.350843 100.354346Z"  /></svg>