<?xml version="1.0" standalone="no"?><!DOCTYPE svg PUBLIC "-//W3C//DTD SVG 1.1//EN" "http://www.w3.org/Graphics/SVG/1.1/DTD/svg11.dtd"><svg class="icon" width="18px" height="18.00px" viewBox="0 0 1024 1024" version="1.1" xmlns="http://www.w3.org/2000/svg"><path fill="#ffffff" d="M594.83 372.55H437.12c-30.27 0-54.9 24.62-54.9 54.89v175.71c0 30.27 24.63 54.9 54.9 54.9h157.71c30.27 0 54.89-24.63 54.89-54.9V427.44c0-30.27-24.62-54.89-54.89-54.89z m-17.79 212.82H454.9V445.23h122.14v140.14z"  /><path fill="#ffffff" d="M891.25 542.78c20.07 0 36.34-16.27 36.34-36.34s-16.27-36.34-36.34-36.34H776.56v-36.34h114.69c20.07 0 36.34-16.27 36.34-36.34s-16.27-36.34-36.34-36.34H776.56v-29.46c0-58.68-47.74-106.42-106.41-106.42H656.2v-85.54c0-20.07-16.27-36.34-36.34-36.34-20.07 0-36.34 16.27-36.34 36.34v85.54h-36.34v-85.54c0-20.07-16.27-36.34-36.34-36.34s-36.34 16.27-36.34 36.34v85.54h-36.34v-85.54c0-20.07-16.27-36.34-36.34-36.34s-36.34 16.27-36.34 36.34v85.54h-13.95c-58.68 0-106.42 47.74-106.42 106.42v29.46H134.98c-20.07 0-36.34 16.27-36.34 36.34s16.27 36.34 36.34 36.34h110.15v36.34H134.98c-20.07 0-36.34 16.27-36.34 36.34s16.27 36.34 36.34 36.34h110.15v36.34H134.98c-20.07 0-36.34 16.27-36.34 36.34 0 20.07 16.27 36.34 36.34 36.34h110.15v40.83c0 58.68 47.74 106.42 106.42 106.42h7.13v85.54c0 20.07 16.27 36.34 36.34 36.34s36.34-16.27 36.34-36.34v-85.54h36.34v85.54c0 20.07 16.27 36.34 36.34 36.34 20.07 0 36.34-16.27 36.34-36.34v-85.54h36.34v85.54c0 20.07 16.27 36.34 36.34 36.34 20.07 0 36.34-16.27 36.34-36.34v-85.54h20.77c58.68 0 106.41-47.74 106.41-106.42V651.8h114.69c20.07 0 36.34-16.27 36.34-36.34 0-20.07-16.27-36.34-36.34-36.34H776.56v-36.34h114.69zM703.89 692.62c0 18.61-15.13 33.75-33.74 33.75h-318.6c-18.61 0-33.75-15.13-33.75-33.75V331.63c0-18.61 15.13-33.75 33.75-33.75h318.6c18.6 0 33.74 15.13 33.74 33.75v360.99z"  /></svg>