<?xml version="1.0" standalone="no"?><!DOCTYPE svg PUBLIC "-//W3C//DTD SVG 1.1//EN" "http://www.w3.org/Graphics/SVG/1.1/DTD/svg11.dtd"><svg class="icon" width="18px" height="18.00px" viewBox="0 0 1024 1024" version="1.1" xmlns="http://www.w3.org/2000/svg"><path fill="#ffffff" d="M529.65 98.5c-5.27-0.18-10.55-0.28-15.92-0.28-5.37 0-10.65 0.09-15.92 0.28C276.2 106.89 99.16 289.21 99.16 512.79s177.04 405.9 398.65 414.29c5.27 0.18 10.55 0.28 15.92 0.28 5.37 0 10.65-0.09 15.92-0.28 221.61-8.39 398.65-190.7 398.65-414.29S751.26 106.89 529.65 98.5z m321.1 376.6h-149.9c-8.57-126.26-59.08-226.97-101.18-290.57C733.54 219.58 835.3 334.35 850.75 475.1zM513.82 194.14c37.03 48.24 100.82 148.87 111.46 280.96h-223.1c10.64-131.53 74.62-232.53 111.64-280.96z m111.46 356.34c-10.64 131.53-74.53 232.53-111.65 280.96-37.03-48.24-100.82-148.87-111.46-280.96h223.11zM427.8 184.53c-42.11 63.6-92.62 164.31-101.18 290.57h-149.9c15.44-140.75 117.19-255.52 251.08-290.57zM176.71 550.48h149.9c8.57 126.17 58.98 226.88 101.09 290.48C293.82 806 192.16 691.24 176.71 550.48z m423.04 290.48c42.11-63.6 92.53-164.31 101.09-290.48h149.9C835.3 691.24 733.64 806 599.75 840.96z"  /></svg>