<?xml version="1.0" standalone="no"?><!DOCTYPE svg PUBLIC "-//W3C//DTD SVG 1.1//EN" "http://www.w3.org/Graphics/SVG/1.1/DTD/svg11.dtd"><svg class="icon" width="18px" height="18.00px" viewBox="0 0 1024 1024" version="1.1" xmlns="http://www.w3.org/2000/svg"><path fill="#ffffff" d="M115.69 223.01v558.84c0 31.73 25.41 57.54 56.65 57.54h486.81v-2.76c15.45 52.88 64.29 91.66 122.09 91.66 70.17 0 127.26-57.09 127.26-127.26s-57.09-127.26-127.26-127.26c-57.8 0-106.64 38.78-122.09 91.66v-2.76H192.41V540.79h464.65c12.61 56.99 63.46 99.78 124.19 99.78 70.17 0 127.26-57.09 127.26-127.26s-57.09-127.26-127.26-127.26c-52.72 0-98.04 32.23-117.33 78.02H192.41V242.19H655.2c8.18 62.34 61.52 110.67 126.05 110.67 70.17 0 127.26-57.09 127.26-127.26S851.42 98.33 781.25 98.33c-48.43 0-90.61 27.21-112.11 67.13h-496.8c-31.24 0-56.65 25.82-56.65 57.55z m615.02 2.58c0-27.86 22.67-50.54 50.53-50.54 27.87 0 50.54 22.67 50.54 50.54s-22.67 50.54-50.54 50.54c-27.85 0-50.53-22.67-50.53-50.54z m0 287.72c0-27.86 22.67-50.54 50.53-50.54 27.87 0 50.54 22.67 50.54 50.54 0 27.86-22.67 50.54-50.54 50.54-27.85 0-50.53-22.67-50.53-50.54z m0 287.72c0-27.86 22.67-50.54 50.53-50.54 27.87 0 50.54 22.67 50.54 50.54 0 27.86-22.67 50.54-50.54 50.54-27.85 0-50.53-22.68-50.53-50.54z"  /></svg>