<?xml version="1.0" standalone="no"?><!DOCTYPE svg PUBLIC "-//W3C//DTD SVG 1.1//EN" "http://www.w3.org/Graphics/SVG/1.1/DTD/svg11.dtd"><svg class="icon" width="18px" height="18.00px" viewBox="0 0 1024 1024" version="1.1" xmlns="http://www.w3.org/2000/svg"><path fill="#ffffff" d="M818.75 704.76V572.51c0-87-64.98-128.41-112.64-128.41h-157.1v-35.15c67.57-17.96 117.58-79.49 117.58-152.64 0-87.17-70.92-158.09-158.09-158.09s-158.09 70.92-158.09 158.09c0 72.44 49.03 133.5 115.61 152.13v35.65H310.88c-87 0-114.62 80.75-114.62 128.41v132.76c-47.8 13.42-83 57.29-83 109.32 0 62.65 50.98 113.63 113.63 113.63s113.63-50.98 113.63-113.63c0-43.76-24.91-81.76-61.26-100.74V572.97c0-18.24-0.21-45.87 31.62-45.87h155.13v180.37c-44.23 15.56-76.08 57.64-76.08 107.12 0 62.65 50.98 113.63 113.63 113.63s113.63-50.98 113.63-113.63c0-46.49-28.1-86.5-68.18-104.08V527.1h156.64c18.24 0 30.11 13.57 30.11 45.41v142.32c-35.29 19.3-59.28 56.78-59.28 99.76 0 62.65 50.98 113.63 113.63 113.63s113.63-50.98 113.63-113.63c-0.01-52.74-36.19-97.08-84.99-109.83z m-389.3-448.44c0-43.59 35.46-79.05 79.05-79.05s79.05 35.46 79.05 79.05-35.46 79.05-79.05 79.05-79.05-35.46-79.05-79.05zM226.89 849.17c-19.07 0-34.58-15.52-34.58-34.58 0-19.07 15.52-34.58 34.58-34.58s34.58 15.52 34.58 34.58c0 19.07-15.51 34.58-34.58 34.58z m276.66 0c-19.07 0-34.58-15.52-34.58-34.58 0-19.07 15.52-34.58 34.58-34.58s34.58 15.52 34.58 34.58c0.01 19.07-15.51 34.58-34.58 34.58z m286.55 0c-19.07 0-34.58-15.52-34.58-34.58 0-19.07 15.52-34.58 34.58-34.58 19.07 0 34.58 15.52 34.58 34.58 0 19.07-15.51 34.58-34.58 34.58z"  /></svg>