<?xml version="1.0" standalone="no"?><!DOCTYPE svg PUBLIC "-//W3C//DTD SVG 1.1//EN" "http://www.w3.org/Graphics/SVG/1.1/DTD/svg11.dtd"><svg class="icon" width="18px" height="18.00px" viewBox="0 0 1024 1024" version="1.1" xmlns="http://www.w3.org/2000/svg"><path fill="#ffffff" d="M514.61 130.68L96.31 274.01l9.13 30.51c13.99 46.77 20.93 87.59 27.64 127.06 20.66 121.41 36.96 217.31 232.86 341.9 53.46 34 103.18 80.24 119.52 95.43l28.9 26.73 26.39-23.95c14.03-12.73 64.77-57.37 128.64-97.35 174.89-109.48 251.83-457.49 255.02-472.25l6.23-28.86-416.03-142.55zM206.82 420.87c-5.32-31.27-11.2-65.83-20.94-104l283.4-97.11v540.72c-18.61-14.74-39.41-30.08-61.02-43.82C238.8 608.89 226.08 534.09 206.82 420.87z m587.84 49.34C745.93 593.88 688.14 679.3 627.54 717.24c-25.95 16.24-49.34 32.85-69.84 48.33V219l286.55 98.19c-8.54 32.91-24.96 90.52-49.59 153.02z"  /></svg>