<?xml version="1.0" standalone="no"?><!DOCTYPE svg PUBLIC "-//W3C//DTD SVG 1.1//EN" "http://www.w3.org/Graphics/SVG/1.1/DTD/svg11.dtd"><svg class="icon" width="18px" height="18.00px" viewBox="0 0 1024 1024" version="1.1" xmlns="http://www.w3.org/2000/svg"><path fill="#ffffff" d="M514.14 98.99L94.57 254.58l9.16 33.13c14.03 50.77 20.99 95.07 27.73 137.92 20.71 131.79 37.08 235.89 233.56 371.13 53.53 36.84 103.42 87.02 119.8 103.51l29.07 29.07 26.47-25.96c18.11-17.75 66.91-63.59 129.04-105.69 175.42-118.83 252.59-496.61 255.79-512.63l6.25-31.32-417.3-154.75z m280.89 368.56C746.15 601.8 688.18 694.53 627.39 735.7c-46.54 31.54-86.15 64.99-112.6 88.96-25.48-24.56-64.96-60.42-107.33-89.58C237.5 618.09 224.73 536.9 205.42 414c-5.33-33.93-11.24-71.46-21-112.89l329.72-122.28 330.62 122.6c-8.57 35.74-25.03 98.28-49.73 166.12z"  /><path fill="#ffffff" d="M467.28 351.26c0 3.87 0.67 7.54 1.63 11.1-3.66 1.44-7.23 3.05-10.72 4.82-1.87-3.31-4.04-6.49-6.86-9.31-16.79-16.79-44.01-16.79-60.8 0s-16.79 44.01 0 60.8c3.27 3.27 7.01 5.71 10.91 7.7-1.57 3.44-2.96 6.96-4.21 10.56-4.21-1.38-8.63-2.31-13.3-2.31-23.74 0-42.99 19.25-42.99 42.99 0 23.74 19.25 42.99 42.99 42.99 4.67 0 9.09-0.93 13.3-2.31 1.25 3.6 2.65 7.12 4.21 10.56-3.91 2-7.64 4.43-10.91 7.7-16.79 16.79-16.79 44.01 0 60.8s44.01 16.79 60.8 0c2.82-2.82 4.99-6 6.86-9.31 3.48 1.77 7.05 3.38 10.72 4.82-0.96 3.56-1.63 7.24-1.63 11.1 0 23.74 19.25 42.99 42.99 42.99 23.74 0 42.99-19.25 42.99-42.99 0-2.93-0.3-5.79-0.86-8.55 3.96-1.29 7.82-2.77 11.59-4.43 1.52 2.24 3.23 4.4 5.21 6.38 16.79 16.79 44.01 16.79 60.8 0s16.79-44.01 0-60.8c-1.54-1.54-3.25-2.78-4.94-4.04 2.01-4.06 3.79-8.24 5.36-12.53 2.04 0.3 4.07 0.62 6.19 0.62 23.74 0 42.99-19.25 42.99-42.99 0-23.74-19.25-42.99-42.99-42.99-2.12 0-4.15 0.33-6.19 0.62-1.57-4.29-3.35-8.47-5.36-12.53 1.7-1.26 3.4-2.5 4.94-4.04 16.79-16.79 16.79-44.01 0-60.8s-44.01-16.79-60.8 0c-1.99 1.99-3.7 4.14-5.21 6.38-3.77-1.66-7.64-3.15-11.6-4.43 0.56-2.77 0.86-5.62 0.86-8.55 0-23.74-19.25-42.99-42.99-42.99-23.73-0.01-42.98 19.23-42.98 42.97z m87.89 126.21c0 24.55-19.9 44.45-44.45 44.45-24.55 0-44.45-19.9-44.45-44.45s19.9-44.45 44.45-44.45c24.55 0 44.45 19.9 44.45 44.45z"  /></svg>