<svg width="220.955139" height="36.964844" viewBox="0 0 220.955 36.9648" fill="none" xmlns="http://www.w3.org/2000/svg" xmlns:xlink="http://www.w3.org/1999/xlink">
	<desc>
			Created with Pixso.
	</desc>
	<defs>
		<filter id="filter_3_1_dd" x="0.000000" y="0.000000" width="220.955139" height="36.964844" filterUnits="userSpaceOnUse" color-interpolation-filters="sRGB">
			<feFlood flood-opacity="0" result="BackgroundImageFix"/>
			<feColorMatrix in="SourceAlpha" type="matrix" values="0 0 0 0 0 0 0 0 0 0 0 0 0 0 0 0 0 0 127 0" result="hardAlpha"/>
			<feOffset dx="0" dy="4"/>
			<feGaussianBlur stdDeviation="1.33333"/>
			<feComposite in2="hardAlpha" operator="out" k2="-1" k3="1"/>
			<feColorMatrix type="matrix" values="0 0 0 0 0 0 0 0 0 0 0 0 0 0 0 0 0 0 0.25 0"/>
			<feBlend mode="normal" in2="BackgroundImageFix" result="effect_dropShadow_1"/>
			<feBlend mode="normal" in="SourceGraphic" in2="effect_dropShadow_1" result="shape"/>
		</filter>
	</defs>
	<g filter="url(#filter_3_1_dd)">
		<path id="StratoCloud" d="M13.8506 27.8945Q11.3281 27.8945 9.31543 27.0156Q7.30273 26.1279 6.15137 24.5107Q5 22.8848 5 20.7314L9.38574 20.7314Q9.53516 22.3486 10.6689 23.3945Q11.8027 24.4316 13.8506 24.4316Q15.9775 24.4316 17.1641 23.4121Q18.3506 22.3838 18.3506 20.7666Q18.3506 19.501 17.6123 18.71Q16.874 17.9189 15.7754 17.4883Q14.6768 17.0576 12.7344 16.5479Q10.291 15.9062 8.76172 15.2383Q7.23242 14.5703 6.15137 13.1729Q5.07031 11.7666 5.07031 9.41992Q5.07031 7.2666 6.15137 5.64941Q7.23242 4.02344 9.1748 3.16211Q11.1172 2.29199 13.6748 2.29199Q17.3047 2.29199 19.625 4.11133Q21.9541 5.93066 22.2002 9.10352L17.665 9.10352Q17.5596 7.73242 16.373 6.76562Q15.1865 5.79004 13.2441 5.79004Q11.4775 5.79004 10.3613 6.69531Q9.24512 7.5918 9.24512 9.2793Q9.24512 10.4307 9.94824 11.1689Q10.6514 11.9072 11.7236 12.3379Q12.8047 12.7686 14.6768 13.2783Q17.1641 13.9639 18.7285 14.6494Q20.293 15.3262 21.3916 16.75Q22.4902 18.1738 22.4902 20.5469Q22.4902 22.4541 21.4619 24.1504Q20.4424 25.8379 18.4736 26.8662Q16.5137 27.8945 13.8506 27.8945ZM32.1405 11.1514L32.1405 22.1289Q32.1405 23.2451 32.659 23.7373Q33.1864 24.2207 34.4432 24.2207L36.9657 24.2207L36.9657 27.6396L33.7225 27.6396Q30.954 27.6396 29.4774 26.3477Q28.0008 25.0469 28.0008 22.1289L28.0008 11.1514L25.6629 11.1514L25.6629 7.80273L28.0008 7.80273L28.0008 2.87207L32.1405 2.87207L32.1405 7.80273L36.9657 7.80273L36.9657 11.1514L32.1405 11.1514ZM44.8469 10.6855Q45.7522 9.17383 47.2463 8.33008Q48.7405 7.47754 50.7883 7.47754L50.7883 11.7314L49.7424 11.7314Q47.3342 11.7314 46.0862 12.9531Q44.8469 14.1748 44.8469 17.1982L44.8469 27.6396L40.7424 27.6396L40.7424 7.80273L44.8469 7.80273L44.8469 10.6855ZM53.2041 17.6289Q53.2041 14.6406 54.4434 12.3379Q55.6827 10.0352 57.8272 8.76074Q59.9717 7.47754 62.5645 7.47754Q64.9024 7.47754 66.6426 8.40039Q68.3916 9.31445 69.4375 10.6855L69.4375 7.80273L73.5772 7.80273L73.5772 27.6396L69.4375 27.6396L69.4375 24.6865Q68.3916 26.0928 66.5899 27.0332Q64.7881 27.9648 62.4854 27.9648Q59.9366 27.9648 57.8096 26.6553Q55.6827 25.3369 54.4434 22.9814Q53.2041 20.6172 53.2041 17.6289ZM69.4375 17.708Q69.4375 15.6514 68.585 14.1396Q67.7412 12.6279 66.3702 11.8369Q65.0079 11.0459 63.4258 11.0459Q61.8438 11.0459 60.4727 11.8193Q59.1016 12.5928 58.2579 14.0869Q57.4141 15.5811 57.4141 17.6289Q57.4141 19.6855 58.2579 21.2324Q59.1016 22.7793 60.4903 23.5879Q61.8789 24.3965 63.4258 24.3965Q65.0079 24.3965 66.3702 23.6055Q67.7412 22.8145 68.585 21.2852Q69.4375 19.7559 69.4375 17.708ZM83.7645 11.1514L83.7645 22.1289Q83.7645 23.2451 84.283 23.7373Q84.8104 24.2207 86.0672 24.2207L88.5897 24.2207L88.5897 27.6396L85.3465 27.6396Q82.578 27.6396 81.1014 26.3477Q79.6248 25.0469 79.6248 22.1289L79.6248 11.1514L77.2869 11.1514L77.2869 7.80273L79.6248 7.80273L79.6248 2.87207L83.7645 2.87207L83.7645 7.80273L88.5897 7.80273L88.5897 11.1514L83.7645 11.1514ZM100.971 27.9648Q98.1672 27.9648 95.8996 26.6904Q93.6321 25.4072 92.3313 23.0869Q91.0393 20.7666 91.0393 17.708Q91.0393 14.6758 92.3664 12.3379Q93.7024 10 96.0051 8.74316Q98.3078 7.47754 101.156 7.47754Q103.994 7.47754 106.297 8.74316Q108.6 10 109.936 12.3379Q111.272 14.6758 111.272 17.708Q111.272 20.7314 109.901 23.0693Q108.53 25.4072 106.174 26.6904Q103.819 27.9648 100.971 27.9648ZM100.971 24.3965Q102.553 24.3965 103.942 23.6406Q105.33 22.8848 106.192 21.373Q107.053 19.8613 107.053 17.708Q107.053 15.5459 106.227 14.0518Q105.401 12.5576 104.03 11.8018Q102.667 11.0459 101.076 11.0459Q99.4944 11.0459 98.1409 11.8018Q96.7961 12.5576 96.0051 14.0518Q95.2141 15.5459 95.2141 17.708Q95.2141 20.9072 96.8489 22.6562Q98.4924 24.3965 100.971 24.3965ZM114.368 15.0361Q114.368 11.3359 115.985 8.40039Q117.602 5.46484 120.406 3.83008Q123.218 2.18652 126.672 2.18652Q130.891 2.18652 133.897 4.19043Q136.903 6.18555 138.265 9.81543L135.312 9.81543Q134.24 7.2666 132.025 5.8252Q129.81 4.38379 126.672 4.38379Q123.904 4.38379 121.689 5.68457Q119.474 6.97656 118.217 9.41113Q116.96 11.8369 116.96 15.0361Q116.96 18.2441 118.217 20.6611Q119.474 23.0693 121.689 24.3701Q123.904 25.6621 126.672 25.6621Q129.81 25.6621 132.025 24.2383Q134.24 22.8145 135.312 20.292L138.265 20.292Q136.903 23.8955 133.879 25.8818Q130.856 27.8594 126.672 27.8594Q123.218 27.8594 120.406 26.2246Q117.602 24.5811 115.985 21.6631Q114.368 18.7451 114.368 15.0361ZM145.789 1L145.789 27.6396L143.275 27.6396L143.275 1L145.789 1ZM160.124 27.9297Q157.346 27.9297 155.131 26.6904Q152.916 25.4424 151.642 23.1572Q150.368 20.8721 150.368 17.8135Q150.368 14.7549 151.66 12.4697Q152.96 10.1758 155.184 8.93652Q157.416 7.69727 160.194 7.69727Q162.962 7.69727 165.212 8.93652Q167.462 10.1758 168.737 12.4697Q170.02 14.7549 170.02 17.8135Q170.02 20.8369 168.719 23.1396Q167.427 25.4424 165.16 26.6904Q162.892 27.9297 160.124 27.9297ZM160.124 25.7324Q162.066 25.7324 163.718 24.8535Q165.379 23.9658 166.399 22.1904Q167.427 20.4062 167.427 17.8135Q167.427 15.2207 166.416 13.4365Q165.415 11.6523 163.753 10.7734Q162.101 9.89453 160.159 9.89453Q158.216 9.89453 156.555 10.7734Q154.903 11.6523 153.91 13.4365Q152.916 15.2207 152.916 17.8135Q152.916 20.4062 153.91 22.1904Q154.903 23.9658 156.538 24.8535Q158.172 25.7324 160.124 25.7324ZM191.655 7.9873L191.655 27.6396L189.133 27.6396L189.133 24.1855Q188.272 26.0225 186.47 26.998Q184.668 27.9648 182.444 27.9648Q178.911 27.9648 176.679 25.7852Q174.446 23.6055 174.446 19.4658L174.446 7.9873L176.934 7.9873L176.934 19.1758Q176.934 22.3838 178.533 24.0801Q180.133 25.7676 182.91 25.7676Q185.749 25.7676 187.437 23.9658Q189.133 22.1641 189.133 18.6748L189.133 7.9873L191.655 7.9873ZM196.268 17.7783Q196.268 14.7549 197.489 12.4697Q198.711 10.1758 200.856 8.93652Q203 7.69727 205.698 7.69727Q208.291 7.69727 210.374 8.96289Q212.466 10.2197 213.433 12.2324L213.433 1L215.955 1L215.955 27.6396L213.433 27.6396L213.433 23.2451Q212.536 25.3018 210.48 26.6201Q208.432 27.9297 205.663 27.9297Q202.956 27.9297 200.812 26.6729Q198.676 25.4072 197.472 23.1045Q196.268 20.8018 196.268 17.7783ZM213.433 17.8135Q213.433 15.4316 212.457 13.6387Q211.49 11.8369 209.812 10.8701Q208.142 9.89453 206.129 9.89453Q204.037 9.89453 202.385 10.835Q200.732 11.7666 199.774 13.5508Q198.816 15.3262 198.816 17.7783Q198.816 20.1865 199.774 22.0059Q200.732 23.8252 202.385 24.7832Q204.037 25.7324 206.129 25.7324Q208.142 25.7324 209.812 24.7656Q211.49 23.79 212.457 21.9883Q213.433 20.1865 213.433 17.8135Z" fill-rule="evenodd" fill="#FFFFFF"/>
	</g>
	<path id="StratoCloud" d="M13.8506 27.8945Q11.3281 27.8945 9.31543 27.0156Q7.30273 26.1279 6.15137 24.5107Q5 22.8848 5 20.7314L9.38574 20.7314Q9.53516 22.3486 10.6689 23.3945Q11.8027 24.4316 13.8506 24.4316Q15.9775 24.4316 17.1641 23.4121Q18.3506 22.3838 18.3506 20.7666Q18.3506 19.501 17.6123 18.71Q16.874 17.9189 15.7754 17.4883Q14.6768 17.0576 12.7344 16.5479Q10.291 15.9062 8.76172 15.2383Q7.23242 14.5703 6.15137 13.1729Q5.07031 11.7666 5.07031 9.41992Q5.07031 7.2666 6.15137 5.64941Q7.23242 4.02344 9.1748 3.16211Q11.1172 2.29199 13.6748 2.29199Q17.3047 2.29199 19.625 4.11133Q21.9541 5.93066 22.2002 9.10352L17.665 9.10352Q17.5596 7.73242 16.373 6.76562Q15.1865 5.79004 13.2441 5.79004Q11.4775 5.79004 10.3613 6.69531Q9.24512 7.5918 9.24512 9.2793Q9.24512 10.4307 9.94824 11.1689Q10.6514 11.9072 11.7236 12.3379Q12.8047 12.7686 14.6768 13.2783Q17.1641 13.9639 18.7285 14.6494Q20.293 15.3262 21.3916 16.75Q22.4902 18.1738 22.4902 20.5469Q22.4902 22.4541 21.4619 24.1504Q20.4424 25.8379 18.4736 26.8662Q16.5137 27.8945 13.8506 27.8945ZM32.1405 11.1514L32.1405 22.1289Q32.1405 23.2451 32.659 23.7373Q33.1864 24.2207 34.4432 24.2207L36.9657 24.2207L36.9657 27.6396L33.7225 27.6396Q30.954 27.6396 29.4774 26.3477Q28.0008 25.0469 28.0008 22.1289L28.0008 11.1514L25.6629 11.1514L25.6629 7.80273L28.0008 7.80273L28.0008 2.87207L32.1405 2.87207L32.1405 7.80273L36.9657 7.80273L36.9657 11.1514L32.1405 11.1514ZM44.8469 10.6855Q45.7522 9.17383 47.2463 8.33008Q48.7405 7.47754 50.7883 7.47754L50.7883 11.7314L49.7424 11.7314Q47.3342 11.7314 46.0862 12.9531Q44.8469 14.1748 44.8469 17.1982L44.8469 27.6396L40.7424 27.6396L40.7424 7.80273L44.8469 7.80273L44.8469 10.6855ZM53.2041 17.6289Q53.2041 14.6406 54.4434 12.3379Q55.6827 10.0352 57.8272 8.76074Q59.9717 7.47754 62.5645 7.47754Q64.9024 7.47754 66.6426 8.40039Q68.3916 9.31445 69.4375 10.6855L69.4375 7.80273L73.5772 7.80273L73.5772 27.6396L69.4375 27.6396L69.4375 24.6865Q68.3916 26.0928 66.5899 27.0332Q64.7881 27.9648 62.4854 27.9648Q59.9366 27.9648 57.8096 26.6553Q55.6827 25.3369 54.4434 22.9814Q53.2041 20.6172 53.2041 17.6289ZM69.4375 17.708Q69.4375 15.6514 68.585 14.1396Q67.7412 12.6279 66.3702 11.8369Q65.0079 11.0459 63.4258 11.0459Q61.8438 11.0459 60.4727 11.8193Q59.1016 12.5928 58.2579 14.0869Q57.4141 15.5811 57.4141 17.6289Q57.4141 19.6855 58.2579 21.2324Q59.1016 22.7793 60.4903 23.5879Q61.8789 24.3965 63.4258 24.3965Q65.0079 24.3965 66.3702 23.6055Q67.7412 22.8145 68.585 21.2852Q69.4375 19.7559 69.4375 17.708ZM83.7645 11.1514L83.7645 22.1289Q83.7645 23.2451 84.283 23.7373Q84.8104 24.2207 86.0672 24.2207L88.5897 24.2207L88.5897 27.6396L85.3465 27.6396Q82.578 27.6396 81.1014 26.3477Q79.6248 25.0469 79.6248 22.1289L79.6248 11.1514L77.2869 11.1514L77.2869 7.80273L79.6248 7.80273L79.6248 2.87207L83.7645 2.87207L83.7645 7.80273L88.5897 7.80273L88.5897 11.1514L83.7645 11.1514ZM100.971 27.9648Q98.1672 27.9648 95.8996 26.6904Q93.6321 25.4072 92.3313 23.0869Q91.0393 20.7666 91.0393 17.708Q91.0393 14.6758 92.3664 12.3379Q93.7024 10 96.0051 8.74316Q98.3078 7.47754 101.156 7.47754Q103.994 7.47754 106.297 8.74316Q108.6 10 109.936 12.3379Q111.272 14.6758 111.272 17.708Q111.272 20.7314 109.901 23.0693Q108.53 25.4072 106.174 26.6904Q103.819 27.9648 100.971 27.9648ZM100.971 24.3965Q102.553 24.3965 103.942 23.6406Q105.33 22.8848 106.192 21.373Q107.053 19.8613 107.053 17.708Q107.053 15.5459 106.227 14.0518Q105.401 12.5576 104.03 11.8018Q102.667 11.0459 101.076 11.0459Q99.4944 11.0459 98.1409 11.8018Q96.7961 12.5576 96.0051 14.0518Q95.2141 15.5459 95.2141 17.708Q95.2141 20.9072 96.8489 22.6562Q98.4924 24.3965 100.971 24.3965ZM114.368 15.0361Q114.368 11.3359 115.985 8.40039Q117.602 5.46484 120.406 3.83008Q123.218 2.18652 126.672 2.18652Q130.891 2.18652 133.897 4.19043Q136.903 6.18555 138.265 9.81543L135.312 9.81543Q134.24 7.2666 132.025 5.8252Q129.81 4.38379 126.672 4.38379Q123.904 4.38379 121.689 5.68457Q119.474 6.97656 118.217 9.41113Q116.96 11.8369 116.96 15.0361Q116.96 18.2441 118.217 20.6611Q119.474 23.0693 121.689 24.3701Q123.904 25.6621 126.672 25.6621Q129.81 25.6621 132.025 24.2383Q134.24 22.8145 135.312 20.292L138.265 20.292Q136.903 23.8955 133.879 25.8818Q130.856 27.8594 126.672 27.8594Q123.218 27.8594 120.406 26.2246Q117.602 24.5811 115.985 21.6631Q114.368 18.7451 114.368 15.0361ZM145.789 1L145.789 27.6396L143.275 27.6396L143.275 1L145.789 1ZM160.124 27.9297Q157.346 27.9297 155.131 26.6904Q152.916 25.4424 151.642 23.1572Q150.368 20.8721 150.368 17.8135Q150.368 14.7549 151.66 12.4697Q152.96 10.1758 155.184 8.93652Q157.416 7.69727 160.194 7.69727Q162.962 7.69727 165.212 8.93652Q167.462 10.1758 168.737 12.4697Q170.02 14.7549 170.02 17.8135Q170.02 20.8369 168.719 23.1396Q167.427 25.4424 165.16 26.6904Q162.892 27.9297 160.124 27.9297ZM160.124 25.7324Q162.066 25.7324 163.718 24.8535Q165.379 23.9658 166.399 22.1904Q167.427 20.4062 167.427 17.8135Q167.427 15.2207 166.416 13.4365Q165.415 11.6523 163.753 10.7734Q162.101 9.89453 160.159 9.89453Q158.216 9.89453 156.555 10.7734Q154.903 11.6523 153.91 13.4365Q152.916 15.2207 152.916 17.8135Q152.916 20.4062 153.91 22.1904Q154.903 23.9658 156.538 24.8535Q158.172 25.7324 160.124 25.7324ZM191.655 7.9873L191.655 27.6396L189.133 27.6396L189.133 24.1855Q188.272 26.0225 186.47 26.998Q184.668 27.9648 182.444 27.9648Q178.911 27.9648 176.679 25.7852Q174.446 23.6055 174.446 19.4658L174.446 7.9873L176.934 7.9873L176.934 19.1758Q176.934 22.3838 178.533 24.0801Q180.133 25.7676 182.91 25.7676Q185.749 25.7676 187.437 23.9658Q189.133 22.1641 189.133 18.6748L189.133 7.9873L191.655 7.9873ZM196.268 17.7783Q196.268 14.7549 197.489 12.4697Q198.711 10.1758 200.856 8.93652Q203 7.69727 205.698 7.69727Q208.291 7.69727 210.374 8.96289Q212.466 10.2197 213.433 12.2324L213.433 1L215.955 1L215.955 27.6396L213.433 27.6396L213.433 23.2451Q212.536 25.3018 210.48 26.6201Q208.432 27.9297 205.663 27.9297Q202.956 27.9297 200.812 26.6729Q198.676 25.4072 197.472 23.1045Q196.268 20.8018 196.268 17.7783ZM213.433 17.8135Q213.433 15.4316 212.457 13.6387Q211.49 11.8369 209.812 10.8701Q208.142 9.89453 206.129 9.89453Q204.037 9.89453 202.385 10.835Q200.732 11.7666 199.774 13.5508Q198.816 15.3262 198.816 17.7783Q198.816 20.1865 199.774 22.0059Q200.732 23.8252 202.385 24.7832Q204.037 25.7324 206.129 25.7324Q208.142 25.7324 209.812 24.7656Q211.49 23.79 212.457 21.9883Q213.433 20.1865 213.433 17.8135Z" stroke="#FFFFFF"/>
</svg>
