<svg width="150.636765" height="27.976562" viewBox="0 0 150.637 27.9766" fill="none" xmlns="http://www.w3.org/2000/svg" xmlns:xlink="http://www.w3.org/1999/xlink">
	<desc>
			Created with Pixso.
	</desc>
	<defs>
		<filter id="filter_3_1_dd" x="0.000000" y="0.000000" width="150.636765" height="27.976562" filterUnits="userSpaceOnUse" color-interpolation-filters="sRGB">
			<feFlood flood-opacity="0" result="BackgroundImageFix"/>
			<feColorMatrix in="SourceAlpha" type="matrix" values="0 0 0 0 0 0 0 0 0 0 0 0 0 0 0 0 0 0 127 0" result="hardAlpha"/>
			<feOffset dx="0" dy="4"/>
			<feGaussianBlur stdDeviation="1.33333"/>
			<feComposite in2="hardAlpha" operator="out" k2="-1" k3="1"/>
			<feColorMatrix type="matrix" values="0 0 0 0 0 0 0 0 0 0 0 0 0 0 0 0 0 0 0.25 0"/>
			<feBlend mode="normal" in2="BackgroundImageFix" result="effect_dropShadow_1"/>
			<feBlend mode="normal" in="SourceGraphic" in2="effect_dropShadow_1" result="shape"/>
		</filter>
	</defs>
	<g filter="url(#filter_3_1_dd)">
		<path id="StratoCloud" d="M98.85 18.75L98.85 1L97.18 1L97.18 18.75L98.85 18.75ZM133.32 8.64Q132.51 10.16 132.51 12.18Q132.51 14.2 133.31 15.73Q133.83 16.73 134.62 17.44Q135.04 17.82 135.54 18.11Q135.82 18.28 136.11 18.41Q137.32 18.95 138.77 18.95Q140.42 18.95 141.68 18.25Q141.84 18.17 141.98 18.08Q143.01 17.42 143.6 16.49Q143.8 16.17 143.95 15.83L143.95 18.75L145.63 18.75L145.63 1L143.95 1L143.95 8.48Q143.8 8.17 143.6 7.88Q142.98 6.94 141.91 6.3Q141.51 6.06 141.08 5.89Q140.02 5.46 138.79 5.46Q137.34 5.46 136.12 6Q135.84 6.13 135.57 6.29Q135.08 6.57 134.66 6.93Q133.86 7.64 133.32 8.64ZM78.75 6.39Q77.91 8.17 77.91 10.35Q77.91 12.59 78.79 14.4Q78.88 14.59 78.98 14.77Q79.62 15.93 80.54 16.78Q81.17 17.37 81.93 17.81Q82.46 18.12 83.02 18.34Q84.46 18.9 86.11 18.9Q88.69 18.9 90.6 17.78Q90.76 17.68 90.91 17.58Q91.59 17.14 92.15 16.57Q93.24 15.45 93.84 13.86L91.87 13.86Q91.43 14.89 90.7 15.65Q90.25 16.12 89.68 16.49Q88.2 17.44 86.11 17.44Q84.68 17.44 83.47 16.92Q83.12 16.77 82.79 16.58Q82.32 16.3 81.91 15.95Q81.04 15.2 80.47 14.1Q79.64 12.49 79.64 10.35Q79.64 8.22 80.47 6.6Q81.07 5.45 81.98 4.68Q82.36 4.37 82.79 4.12Q83.13 3.92 83.5 3.76Q84.69 3.25 86.11 3.25Q88.18 3.25 89.64 4.19Q89.66 4.2 89.68 4.21Q90.22 4.57 90.66 5.02Q91.42 5.8 91.87 6.87L93.84 6.87Q93.21 5.21 92.07 4.06Q91.55 3.54 90.93 3.12Q90.79 3.03 90.65 2.95Q88.73 1.79 86.11 1.79Q84.47 1.79 83.05 2.34Q82.47 2.57 81.93 2.88Q81.21 3.3 80.6 3.86Q79.65 4.73 78.98 5.93Q78.86 6.16 78.75 6.39ZM7.87 18.34Q9.21 18.92 10.9 18.92Q12.67 18.92 13.98 18.24Q15.15 17.63 15.82 16.67Q15.9 16.55 15.97 16.43Q16.4 15.71 16.56 14.94Q16.66 14.49 16.66 14.03Q16.66 12.44 15.92 11.5Q15.4 10.82 14.72 10.4Q14.45 10.22 14.15 10.09Q13.1 9.64 11.45 9.18Q10.2 8.84 9.48 8.55Q8.76 8.27 8.29 7.77Q8.16 7.63 8.06 7.47Q7.83 7.06 7.83 6.51Q7.83 5.71 8.2 5.18Q8.36 4.96 8.57 4.79Q8.63 4.75 8.68 4.7Q9.4 4.19 10.49 4.19Q11.74 4.19 12.52 4.79Q12.55 4.82 12.58 4.84Q13.11 5.27 13.31 5.82Q13.42 6.1 13.44 6.4L16.46 6.4Q16.36 5.1 15.74 4.14Q15.35 3.54 14.75 3.07Q14.66 3 14.58 2.94Q13.07 1.86 10.78 1.86Q9.07 1.86 7.78 2.44Q6.79 2.88 6.13 3.61Q5.93 3.84 5.76 4.09Q5.61 4.32 5.49 4.56Q5.04 5.47 5.04 6.61Q5.04 8.17 5.76 9.11Q6.29 9.79 6.97 10.21Q7.23 10.37 7.5 10.49Q8.52 10.93 10.15 11.36Q11.45 11.7 12.18 11.99Q12.86 12.25 13.33 12.73Q13.37 12.76 13.4 12.8Q13.51 12.92 13.6 13.05Q13.9 13.51 13.9 14.17Q13.9 14.76 13.66 15.23Q13.47 15.62 13.1 15.94Q12.31 16.62 10.9 16.62Q9.56 16.62 8.81 15.95Q8.79 15.94 8.77 15.92Q8.47 15.65 8.27 15.31Q7.98 14.8 7.92 14.15L5 14.15Q5 15.17 5.38 16.01Q5.54 16.35 5.76 16.67Q5.88 16.83 6 16.98Q6.73 17.83 7.87 18.34ZM23.09 15.08L23.09 7.76L26.31 7.76L26.31 5.53L23.09 5.53L23.09 2.24L20.33 2.24L20.33 5.53L18.77 5.53L18.77 7.76L20.33 7.76L20.33 15.08Q20.33 17 21.28 17.87Q21.3 17.88 21.31 17.89Q22.3 18.75 24.14 18.75L26.31 18.75L26.31 16.48L24.62 16.48Q23.79 16.48 23.43 16.15Q23.09 15.83 23.09 15.08ZM57.5 15.08L57.5 7.76L60.72 7.76L60.72 5.53L57.5 5.53L57.5 2.24L54.74 2.24L54.74 5.53L53.19 5.53L53.19 7.76L54.74 7.76L54.74 15.08Q54.74 17 55.7 17.87Q55.71 17.88 55.73 17.89Q56.71 18.75 58.56 18.75L60.72 18.75L60.72 16.48L59.04 16.48Q58.2 16.48 57.85 16.15Q57.5 15.83 57.5 15.08ZM32.43 6.4Q31.92 6.85 31.56 7.45L31.56 5.53L28.82 5.53L28.82 18.75L31.56 18.75L31.56 11.79Q31.56 9.78 32.39 8.96Q32.4 8.95 32.41 8.94Q33.24 8.15 34.82 8.15L35.52 8.15L35.52 5.31Q34.16 5.31 33.16 5.88Q32.76 6.11 32.43 6.4ZM37.96 8.55Q37.13 10.09 37.13 12.08Q37.13 14.01 37.91 15.55Q37.93 15.6 37.96 15.65Q38.55 16.78 39.46 17.55Q39.81 17.85 40.2 18.1Q40.81 18.48 41.48 18.69Q42.35 18.97 43.32 18.97Q44.85 18.97 46.05 18.35Q47.26 17.72 47.95 16.79L47.95 18.75L50.71 18.75L50.71 5.53L47.95 5.53L47.95 7.45Q47.26 6.54 46.09 5.93Q44.93 5.31 43.37 5.31Q42.28 5.31 41.31 5.65Q40.74 5.85 40.21 6.17Q39.73 6.45 39.32 6.82Q38.51 7.53 37.96 8.55ZM66.26 18.45Q67.51 18.97 68.98 18.97Q70.4 18.97 71.64 18.49Q72.05 18.33 72.44 18.12Q73.17 17.73 73.76 17.18Q74.44 16.54 74.93 15.71Q75.04 15.52 75.13 15.33Q75.84 13.91 75.84 12.13Q75.84 10.26 75.07 8.78Q75.02 8.66 74.95 8.55Q74.43 7.64 73.68 6.97Q73.16 6.5 72.53 6.16Q72.23 5.99 71.92 5.86Q70.62 5.31 69.1 5.31Q67.55 5.31 66.24 5.88Q65.95 6 65.67 6.16Q65.03 6.5 64.51 6.97Q63.76 7.64 63.24 8.55Q63.18 8.65 63.13 8.75Q62.35 10.24 62.35 12.13Q62.35 14.17 63.22 15.72Q63.71 16.6 64.42 17.26Q64.95 17.76 65.59 18.12Q65.92 18.3 66.26 18.45ZM105.55 18.36Q106.85 18.95 108.41 18.95Q109.84 18.95 111.08 18.45Q111.43 18.31 111.77 18.12Q112.42 17.76 112.96 17.27Q113.65 16.62 114.14 15.75Q114.15 15.73 114.17 15.71Q115.01 14.19 115.01 12.2Q115.01 10.16 114.15 8.64Q113.67 7.77 112.97 7.13Q112.45 6.64 111.8 6.29Q111.5 6.12 111.18 5.98Q109.93 5.46 108.46 5.46Q106.93 5.46 105.65 6.02Q105.38 6.14 105.12 6.29Q104.56 6.6 104.08 7.01Q103.31 7.69 102.77 8.64Q101.91 10.16 101.91 12.2Q101.91 14.24 102.76 15.77Q103.26 16.68 104 17.34Q104.49 17.79 105.08 18.12Q105.31 18.25 105.55 18.36ZM129.43 18.75L129.43 5.65L127.75 5.65L127.75 12.78Q127.75 15.1 126.62 16.31Q126.3 16.65 125.92 16.89Q124.96 17.51 123.6 17.51Q122.17 17.51 121.21 16.84Q120.93 16.64 120.68 16.38Q119.62 15.25 119.62 13.11L119.62 5.65L117.96 5.65L117.96 13.31Q117.96 15.84 119.22 17.28Q119.33 17.4 119.45 17.52Q119.87 17.94 120.37 18.23Q121.61 18.97 123.29 18.97Q124.54 18.97 125.59 18.51Q125.79 18.43 125.98 18.33Q126.61 17.99 127.06 17.49Q127.48 17.03 127.75 16.45L127.75 18.75L129.43 18.75ZM110.03 17.23Q109.26 17.48 108.41 17.48Q107.49 17.48 106.68 17.19Q106.34 17.07 106.02 16.9Q105.78 16.77 105.57 16.61Q104.79 16.05 104.27 15.12Q103.61 13.93 103.61 12.2Q103.61 10.48 104.27 9.29Q104.78 8.37 105.54 7.82Q105.77 7.65 106.03 7.51Q106.43 7.3 106.85 7.17Q107.6 6.92 108.43 6.92Q109.29 6.92 110.05 7.18Q110.45 7.31 110.83 7.51Q111.1 7.65 111.33 7.82Q112.1 8.38 112.61 9.29Q113.28 10.48 113.28 12.2Q113.28 13.93 112.59 15.12Q112.07 16.03 111.3 16.59Q111.06 16.76 110.81 16.9Q110.43 17.1 110.03 17.23ZM143.3 9.42Q143.95 10.62 143.95 12.2Q143.95 13.79 143.3 14.99Q142.87 15.8 142.22 16.35Q141.9 16.63 141.54 16.84Q141.15 17.06 140.74 17.21Q139.96 17.48 139.08 17.48Q137.91 17.48 136.95 17.04Q136.76 16.95 136.59 16.85Q136.3 16.68 136.04 16.47Q135.32 15.89 134.85 15Q134.21 13.79 134.21 12.18Q134.21 10.55 134.85 9.36Q135.3 8.52 135.98 7.96Q136.26 7.73 136.59 7.55Q136.75 7.46 136.92 7.38Q137.89 6.92 139.08 6.92Q139.95 6.92 140.72 7.2Q141.14 7.34 141.54 7.58Q141.9 7.78 142.21 8.05Q142.86 8.61 143.3 9.42ZM47.39 9.75Q47.95 10.76 47.95 12.13Q47.95 13.5 47.39 14.52Q46.92 15.37 46.21 15.87Q46.06 15.98 45.91 16.07Q45.47 16.32 44.99 16.45Q44.49 16.59 43.95 16.59Q43.57 16.59 43.22 16.52Q42.58 16.4 41.99 16.05Q41.81 15.95 41.65 15.83Q40.96 15.32 40.5 14.48Q39.94 13.45 39.94 12.08Q39.94 10.72 40.5 9.72Q40.95 8.93 41.61 8.44Q41.79 8.31 41.98 8.21Q42.42 7.96 42.89 7.83Q43.4 7.69 43.95 7.69Q44.49 7.69 44.99 7.83Q45.47 7.96 45.91 8.22Q46.08 8.32 46.25 8.44Q46.93 8.94 47.39 9.75ZM70 16.47Q69.51 16.59 68.98 16.59Q68.06 16.59 67.31 16.23Q66.71 15.95 66.23 15.43Q66.2 15.4 66.17 15.37Q65.14 14.21 65.14 12.13Q65.14 10.69 65.67 9.7Q66.08 8.92 66.71 8.44Q66.89 8.31 67.09 8.2Q67.47 7.98 67.87 7.86Q68.43 7.69 69.05 7.69Q69.66 7.69 70.23 7.86Q70.64 7.99 71.01 8.2Q71.22 8.31 71.41 8.45Q72.05 8.92 72.48 9.7Q73.03 10.69 73.03 12.13Q73.03 13.57 72.46 14.58Q71.99 15.39 71.29 15.88Q71.13 15.99 70.96 16.09Q70.5 16.34 70 16.47Z" fill="#FFFFFF" fill-opacity="1.000000" fill-rule="evenodd"/>
		<path id="StratoCloud" d="M10.9 18.92Q9.21 18.92 7.87 18.34Q6.53 17.75 5.76 16.67Q5 15.58 5 14.15L7.92 14.15Q8.02 15.23 8.77 15.92Q9.53 16.62 10.9 16.62Q12.31 16.62 13.1 15.94Q13.9 15.25 13.9 14.17Q13.9 13.33 13.4 12.8Q12.91 12.27 12.18 11.99Q11.45 11.7 10.15 11.36Q8.52 10.93 7.5 10.49Q6.48 10.04 5.76 9.11Q5.04 8.17 5.04 6.61Q5.04 5.17 5.76 4.09Q6.48 3.01 7.78 2.44Q9.07 1.86 10.78 1.86Q13.2 1.86 14.75 3.07Q16.3 4.28 16.46 6.4L13.44 6.4Q13.37 5.48 12.58 4.84Q11.79 4.19 10.49 4.19Q9.31 4.19 8.57 4.79Q7.83 5.39 7.83 6.51Q7.83 7.28 8.29 7.77Q8.76 8.27 9.48 8.55Q10.2 8.84 11.45 9.18Q13.1 9.64 14.15 10.09Q15.19 10.55 15.92 11.5Q16.66 12.44 16.66 14.03Q16.66 15.3 15.97 16.43Q15.29 17.55 13.98 18.24Q12.67 18.92 10.9 18.92ZM23.09 7.76L23.09 15.08Q23.09 15.83 23.43 16.15Q23.79 16.48 24.62 16.48L26.31 16.48L26.31 18.75L24.14 18.75Q22.3 18.75 21.31 17.89Q20.33 17.03 20.33 15.08L20.33 7.76L18.77 7.76L18.77 5.53L20.33 5.53L20.33 2.24L23.09 2.24L23.09 5.53L26.31 5.53L26.31 7.76L23.09 7.76ZM31.56 7.45Q32.16 6.44 33.16 5.88Q34.16 5.31 35.52 5.31L35.52 8.15L34.82 8.15Q33.22 8.15 32.39 8.96Q31.56 9.78 31.56 11.79L31.56 18.75L28.82 18.75L28.82 5.53L31.56 5.53L31.56 7.45ZM37.13 12.08Q37.13 10.09 37.96 8.55Q38.78 7.02 40.21 6.17Q41.64 5.31 43.37 5.31Q44.93 5.31 46.09 5.93Q47.26 6.54 47.95 7.45L47.95 5.53L50.71 5.53L50.71 18.75L47.95 18.75L47.95 16.79Q47.26 17.72 46.05 18.35Q44.85 18.97 43.32 18.97Q41.62 18.97 40.2 18.1Q38.78 17.22 37.96 15.65Q37.13 14.07 37.13 12.08ZM47.95 12.13Q47.95 10.76 47.39 9.75Q46.82 8.75 45.91 8.22Q45 7.69 43.95 7.69Q42.89 7.69 41.98 8.21Q41.06 8.72 40.5 9.72Q39.94 10.72 39.94 12.08Q39.94 13.45 40.5 14.48Q41.06 15.51 41.99 16.05Q42.91 16.59 43.95 16.59Q45 16.59 45.91 16.07Q46.82 15.54 47.39 14.52Q47.95 13.5 47.95 12.13ZM57.5 7.76L57.5 15.08Q57.5 15.83 57.85 16.15Q58.2 16.48 59.04 16.48L60.72 16.48L60.72 18.75L58.56 18.75Q56.71 18.75 55.73 17.89Q54.74 17.03 54.74 15.08L54.74 7.76L53.19 7.76L53.19 5.53L54.74 5.53L54.74 2.24L57.5 2.24L57.5 5.53L60.72 5.53L60.72 7.76L57.5 7.76ZM68.98 18.97Q67.11 18.97 65.59 18.12Q64.08 17.27 63.22 15.72Q62.35 14.17 62.35 12.13Q62.35 10.11 63.24 8.55Q64.13 7 65.67 6.16Q67.2 5.31 69.1 5.31Q70.99 5.31 72.53 6.16Q74.06 7 74.95 8.55Q75.84 10.11 75.84 12.13Q75.84 14.15 74.93 15.71Q74.01 17.27 72.44 18.12Q70.87 18.97 68.98 18.97ZM68.98 16.59Q70.03 16.59 70.96 16.09Q71.88 15.58 72.46 14.58Q73.03 13.57 73.03 12.13Q73.03 10.69 72.48 9.7Q71.93 8.7 71.01 8.2Q70.11 7.69 69.05 7.69Q67.99 7.69 67.09 8.2Q66.19 8.7 65.67 9.7Q65.14 10.69 65.14 12.13Q65.14 14.27 66.23 15.43Q67.32 16.59 68.98 16.59ZM77.91 10.35Q77.91 7.89 78.98 5.93Q80.06 3.97 81.93 2.88Q83.81 1.79 86.11 1.79Q88.92 1.79 90.93 3.12Q92.93 4.45 93.84 6.87L91.87 6.87Q91.15 5.17 89.68 4.21Q88.2 3.25 86.11 3.25Q84.26 3.25 82.79 4.12Q81.31 4.98 80.47 6.6Q79.64 8.22 79.64 10.35Q79.64 12.49 80.47 14.1Q81.31 15.71 82.79 16.58Q84.26 17.44 86.11 17.44Q88.2 17.44 89.68 16.49Q91.15 15.54 91.87 13.86L93.84 13.86Q92.93 16.26 90.91 17.58Q88.9 18.9 86.11 18.9Q83.81 18.9 81.93 17.81Q80.06 16.72 78.98 14.77Q77.91 12.83 77.91 10.35ZM98.85 1L98.85 18.75L97.18 18.75L97.18 1L98.85 1ZM108.41 18.95Q106.56 18.95 105.08 18.12Q103.61 17.29 102.76 15.77Q101.91 14.24 101.91 12.2Q101.91 10.16 102.77 8.64Q103.64 7.11 105.12 6.29Q106.61 5.46 108.46 5.46Q110.3 5.46 111.8 6.29Q113.3 7.11 114.15 8.64Q115.01 10.16 115.01 12.2Q115.01 14.22 114.14 15.75Q113.28 17.29 111.77 18.12Q110.26 18.95 108.41 18.95ZM108.41 17.48Q109.71 17.48 110.81 16.9Q111.92 16.31 112.59 15.12Q113.28 13.93 113.28 12.2Q113.28 10.48 112.61 9.29Q111.94 8.1 110.83 7.51Q109.73 6.92 108.43 6.92Q107.14 6.92 106.03 7.51Q104.93 8.1 104.27 9.29Q103.61 10.48 103.61 12.2Q103.61 13.93 104.27 15.12Q104.93 16.31 106.02 16.9Q107.11 17.48 108.41 17.48ZM129.43 5.65L129.43 18.75L127.75 18.75L127.75 16.45Q127.18 17.68 125.98 18.33Q124.77 18.97 123.29 18.97Q120.94 18.97 119.45 17.52Q117.96 16.07 117.96 13.31L117.96 5.65L119.62 5.65L119.62 13.11Q119.62 15.25 120.68 16.38Q121.75 17.51 123.6 17.51Q125.49 17.51 126.62 16.31Q127.75 15.1 127.75 12.78L127.75 5.65L129.43 5.65ZM132.51 12.18Q132.51 10.16 133.32 8.64Q134.14 7.11 135.57 6.29Q137 5.46 138.79 5.46Q140.52 5.46 141.91 6.3Q143.31 7.14 143.95 8.48L143.95 1L145.63 1L145.63 18.75L143.95 18.75L143.95 15.83Q143.35 17.2 141.98 18.08Q140.62 18.95 138.77 18.95Q136.97 18.95 135.54 18.11Q134.11 17.27 133.31 15.73Q132.51 14.2 132.51 12.18ZM143.95 12.2Q143.95 10.62 143.3 9.42Q142.66 8.22 141.54 7.58Q140.42 6.92 139.08 6.92Q137.69 6.92 136.59 7.55Q135.48 8.17 134.85 9.36Q134.21 10.55 134.21 12.18Q134.21 13.79 134.85 15Q135.48 16.21 136.59 16.85Q137.69 17.48 139.08 17.48Q140.42 17.48 141.54 16.84Q142.66 16.19 143.3 14.99Q143.95 13.79 143.95 12.2Z" stroke="#FFFFFF" stroke-opacity="1.000000" stroke-width="1.000000"/>
	</g>
</svg>
