<?xml version="1.0" standalone="no"?><!DOCTYPE svg PUBLIC "-//W3C//DTD SVG 1.1//EN" "http://www.w3.org/Graphics/SVG/1.1/DTD/svg11.dtd"><svg class="icon" width="18px" height="18.00px" viewBox="0 0 1024 1024" version="1.1" xmlns="http://www.w3.org/2000/svg"><path fill="#ffffff" d="M616.34 198.19c-135.68 0-251.04 79.61-293.84 209.12h-17.81c-114.74 0-207.77 95.7-207.77 210.46 0 114.75 93.03 210.47 207.78 210.47H616.35c172.12 0 311.65-142.9 311.65-315.02 0-172.13-139.54-315.03-311.66-315.03z m0 549.1H304.69c-76.49 0-138.51-61.11-138.51-137.61 0-76.5 62.02-137.61 138.51-137.61h71.84C393.34 358.74 494.25 265.2 616.35 265.2c133.87 0 242.4 107.18 242.4 241.05-0.01 133.86-108.54 241.04-242.41 241.04z"  /><path fill="#ffffff" d="M654 600.26c-15.07 0-28.8 5.63-39.31 14.84l-108.91-58.87c0.95-4.22 1.49-8.59 1.49-13.1 0-2.42-0.19-4.79-0.47-7.14l83.46-51.93c10.91 11.81 26.48 19.25 43.83 19.25 32.99 0 59.73-26.74 59.73-59.73 0-32.99-26.74-59.73-59.73-59.73-32.99 0-59.73 26.74-59.73 59.73 0 3.11 0.31 6.14 0.77 9.12l-82.51 51.34c-10.95-12.62-27.07-20.63-45.09-20.63-32.99 0-59.73 26.74-59.73 59.73 0 32.99 26.74 59.73 59.73 59.73 15.97 0 30.43-6.3 41.15-16.5l107.68 58.2c-1.32 4.93-2.09 10.09-2.09 15.44 0 32.99 26.74 59.73 59.73 59.73 32.99 0 59.73-26.74 59.73-59.73 0-33-26.74-59.75-59.73-59.75z"  /></svg>